<svg width="29" height="37" viewBox="0 0 29 37" fill="none" xmlns="http://www.w3.org/2000/svg">
<g clip-path="url(#clip0)">
<path d="M1.47699 32.333C2.49504 32.4438 3.47429 32.7859 4.33999 33.333C5.54699 33.95 6.82899 35.2 8.25999 35.2H19.036C20.0053 35.221 20.9469 34.8759 21.6731 34.2335C22.3992 33.5911 22.8566 32.6986 22.954 31.7339C22.9699 31.4499 22.9449 31.165 22.88 30.888C23.547 30.6658 24.1293 30.2434 24.5475 29.6783C24.9658 29.1131 25.1995 28.4328 25.217 27.7299C25.2245 27.1186 25.0957 26.5133 24.84 25.958C25.3272 25.6465 25.7369 25.228 26.0379 24.7343C26.3389 24.2406 26.5233 23.6847 26.577 23.1089C26.5412 22.4026 26.277 21.7271 25.824 21.184C26.2985 20.8481 26.6928 20.4114 26.9786 19.9052C27.2644 19.399 27.4346 18.8357 27.477 18.256C27.477 15.792 25.593 14.483 22.954 14.483H16.177V5.73095C16.177 2.69995 14.363 1.19995 12.777 1.19995C8.53499 1.19995 8.67699 6.86895 8.25999 8.39995C7.33799 11.8 5.47699 15.377 1.47699 16.485" stroke="white" stroke-width="2.4" stroke-miterlimit="10" stroke-linecap="round" stroke-linejoin="round"/>
<path d="M17.477 14.7H13.477" stroke="white" stroke-width="2.4" stroke-miterlimit="10" stroke-linecap="round" stroke-linejoin="round"/>
</g>
<defs>
<clipPath id="clip0">
<rect width="28.676" height="36.4" fill="white"/>
</clipPath>
</defs>
</svg>
