<svg width="48" height="16" viewBox="0 0 48 16" fill="none" xmlns="http://www.w3.org/2000/svg">
<g clip-path="url(#clip0)">
<path d="M27.491 4.04704C27.491 4.04704 27.707 9.65504 30.172 12.39C30.7143 12.9827 31.427 13.3925 32.212 13.563C35.136 14.217 40.258 14.343 41.737 12.776C43.366 11.044 44.806 2.29004 44.806 2.29004" stroke="white" stroke-width="2.4" stroke-miterlimit="10"/>
<path d="M39.989 2.09102C40.456 2.09236 40.9169 2.19612 41.3394 2.395C41.7619 2.59387 42.1356 2.88302 42.4341 3.24204C42.7327 3.60106 42.9488 4.02121 43.0673 4.47286C43.1859 4.92451 43.2038 5.39666 43.12 5.85602C44.349 4.20502 43.774 1.62002 43.774 1.62002C43.774 1.62002 39.989 1.41602 39.989 2.09102Z" fill="white"/>
<path d="M20.137 4.04704C20.137 4.04704 19.922 9.65504 17.457 12.39C16.9147 12.9826 16.202 13.3924 15.417 13.563C12.493 14.217 7.37102 14.343 5.89202 12.776C4.26102 11.044 2.82202 2.29004 2.82202 2.29004" stroke="white" stroke-width="2.4" stroke-miterlimit="10"/>
<path d="M7.64202 2.09102C7.17503 2.09218 6.71398 2.19583 6.29142 2.39465C5.86886 2.59347 5.49509 2.88262 5.19649 3.24168C4.8979 3.60074 4.68175 4.02097 4.56331 4.47269C4.44486 4.92442 4.42702 5.39664 4.51102 5.85602C3.28302 4.20502 3.85702 1.62002 3.85702 1.62002C3.85702 1.62002 7.64202 1.41602 7.64202 2.09102Z" fill="white"/>
<path d="M23.814 3.72405C25.2407 3.6898 26.6517 3.41948 27.99 2.92405C36.037 -0.210945 41.108 1.19105 46.206 2.26505" stroke="white" stroke-width="2.4" stroke-miterlimit="10" stroke-linecap="round" stroke-linejoin="round"/>
<path d="M23.814 3.72405C22.3871 3.68979 20.9756 3.41946 19.637 2.92405C11.59 -0.210945 6.52102 1.19105 1.42102 2.26505" stroke="white" stroke-width="2.4" stroke-miterlimit="10" stroke-linecap="round" stroke-linejoin="round"/>
<path d="M23.814 5.36402C23.814 5.36402 26.631 5.32902 27.055 7.88502C28.114 4.06602 25.741 4.07202 25.741 4.07202L23.814 5.36402Z" fill="white"/>
<path d="M23.815 5.36402C23.815 5.36402 20.991 5.32902 20.563 7.88402C19.501 4.06602 21.891 4.07202 21.891 4.07202L23.815 5.36402Z" fill="white"/>
<path d="M28.611 5.577C28.5301 5.01787 28.6663 4.44896 28.9918 3.98717C29.3173 3.52537 29.8072 3.20576 30.361 3.094C27.26 2.782 27.313 2.611 27.329 2.959C27.6943 3.86071 28.1227 4.73554 28.611 5.577Z" fill="white"/>
<path d="M19.009 5.577C19.09 5.01787 18.9537 4.44896 18.6283 3.98717C18.3028 3.52537 17.8128 3.20576 17.259 3.094C20.359 2.782 20.307 2.611 20.287 2.959C19.923 3.8606 19.496 4.73543 19.009 5.577Z" fill="white"/>
<path d="M22.3391 5.34404H25.416V3.79004H22.3391V5.34404Z" fill="white"/>
</g>
<defs>
<clipPath id="clip0">
<rect width="47.629" height="15.401" fill="white"/>
</clipPath>
</defs>
</svg>
