<svg width="36" height="38" viewBox="0 0 36 38" fill="none" xmlns="http://www.w3.org/2000/svg">
<path d="M17.024 10.748L14.209 6.78202C13.6104 6.16586 13.2782 5.33885 13.2844 4.47976C13.2906 3.62067 13.6346 2.79852 14.2421 2.19104C14.8495 1.58355 15.6717 1.23954 16.5308 1.23336C17.3899 1.22718 18.2169 1.55934 18.833 2.15802L26.603 11.08V6.47002C26.6026 5.79902 26.859 5.1533 27.3195 4.66532C27.7801 4.17733 28.4099 3.88407 29.0798 3.84569C29.7497 3.80732 30.4089 4.02674 30.9222 4.45894C31.4354 4.89114 31.7638 5.50337 31.84 6.17002L33.312 18.936C33.312 18.936 36.93 26.353 31.091 32.224C27.278 36.057 23.399 36.434 20.472 35.853C18.0996 35.342 15.9312 34.1406 14.24 32.4L9.37305 27.533" stroke="white" stroke-width="2.4" stroke-miterlimit="10" stroke-linecap="round" stroke-linejoin="round"/>
<path d="M9.37303 27.532L2.15703 20.316C1.85334 20.0124 1.61243 19.652 1.44806 19.2553C1.2837 18.8586 1.1991 18.4334 1.1991 18.004C1.1991 17.5746 1.2837 17.1494 1.44806 16.7527C1.61243 16.356 1.85334 15.9955 2.15703 15.692L2.42703 15.422C2.73052 15.1183 3.09087 14.8774 3.48748 14.7131C3.8841 14.5487 4.30921 14.4641 4.73853 14.4641C5.16785 14.4641 5.59297 14.5487 5.98958 14.7131C6.3862 14.8774 6.74655 15.1183 7.05003 15.422L9.37303 17.745" stroke="white" stroke-width="2.4" stroke-miterlimit="10" stroke-linecap="round" stroke-linejoin="round"/>
<path d="M19.38 24.034L18.48 24.934C18.0845 25.3294 17.5482 25.5515 16.989 25.5515C16.4298 25.5515 15.8935 25.3294 15.498 24.934L10.562 20.002C10.3661 19.8064 10.2106 19.5741 10.1045 19.3183C9.99845 19.0626 9.94385 18.7884 9.94385 18.5115C9.94385 18.2347 9.99845 17.9605 10.1045 17.7047C10.2106 17.449 10.3661 17.2167 10.562 17.021L11.462 16.116C11.8579 15.7211 12.3944 15.4996 12.9536 15.5001C13.5128 15.5007 14.0489 15.7233 14.444 16.119L19.38 21.053C19.7753 21.4484 19.9974 21.9845 19.9974 22.5435C19.9974 23.1026 19.7753 23.6387 19.38 24.034V24.034Z" stroke="white" stroke-width="2.4" stroke-miterlimit="10" stroke-linecap="round" stroke-linejoin="round"/>
<path d="M23.95 19.814L23.236 20.528C23.0403 20.7239 22.8078 20.8793 22.552 20.9853C22.2962 21.0913 22.0219 21.1458 21.745 21.1458C21.4681 21.1458 21.1939 21.0913 20.938 20.9853C20.6822 20.8793 20.4498 20.7239 20.254 20.528L15.199 15.473C15.0031 15.2772 14.8478 15.0448 14.7418 14.789C14.6357 14.5331 14.5812 14.2589 14.5812 13.982C14.5812 13.7051 14.6357 13.4309 14.7418 13.175C14.8478 12.9192 15.0031 12.6868 15.199 12.491L15.913 11.777C16.3083 11.3817 16.8445 11.1597 17.4035 11.1597C17.9626 11.1597 18.4987 11.3817 18.894 11.777L23.95 16.833C24.3453 17.2283 24.5674 17.7645 24.5674 18.3235C24.5674 18.8825 24.3453 19.4187 23.95 19.814V19.814Z" stroke="white" stroke-width="2.4" stroke-miterlimit="10" stroke-linecap="round" stroke-linejoin="round"/>
</svg>
