<svg width="18" height="18" viewBox="0 0 18 18" fill="none" xmlns="http://www.w3.org/2000/svg">
<path d="M10.7221 10.6194C11.2712 10.0702 11.5457 9.40766 11.5457 8.63158C11.5457 7.85551 11.2712 7.19292 10.7221 6.64382C10.173 6.09471 9.51036 5.82016 8.73429 5.82016C7.95822 5.82016 7.29563 6.09471 6.74652 6.64382C6.19741 7.19292 5.92286 7.85551 5.92286 8.63158C5.92286 9.40766 6.19741 10.0702 6.74652 10.6194C7.29563 11.1685 7.95822 11.443 8.73429 11.443C9.51036 11.443 10.173 11.1685 10.7221 10.6194ZM11.7983 5.56757C12.6403 6.40953 13.0613 7.43087 13.0613 8.63158C13.0613 9.8323 12.6403 10.8536 11.7983 11.6956C10.9563 12.5376 9.935 12.9585 8.73429 12.9585C7.53358 12.9585 6.51224 12.5376 5.67027 11.6956C4.82831 10.8536 4.40732 9.8323 4.40732 8.63158C4.40732 7.43087 4.82831 6.40953 5.67027 5.56757C6.51224 4.7256 7.53358 4.30462 8.73429 4.30462C9.935 4.30462 10.9563 4.7256 11.7983 5.56757ZM13.9508 3.41507C14.1485 3.61275 14.2473 3.85069 14.2473 4.12891C14.2473 4.40712 14.1485 4.64507 13.9508 4.84274C13.7531 5.04042 13.5152 5.13926 13.237 5.13926C12.9588 5.13926 12.7208 5.04042 12.5231 4.84274C12.3255 4.64507 12.2266 4.40712 12.2266 4.12891C12.2266 3.85069 12.3255 3.61275 12.5231 3.41507C12.7208 3.21739 12.9588 3.11855 13.237 3.11855C13.5152 3.11855 13.7531 3.21739 13.9508 3.41507ZM9.56893 1.71283C9.06375 1.71283 8.78554 1.71283 8.73429 1.71283C8.68304 1.71283 8.40116 1.71283 7.88866 1.71283C7.38349 1.70551 6.99911 1.70551 6.73554 1.71283C6.47197 1.71283 6.11688 1.72382 5.67027 1.74578C5.23099 1.76042 4.85393 1.79703 4.53911 1.8556C4.23161 1.90685 3.9717 1.97274 3.75938 2.05328C3.39331 2.19971 3.07116 2.41203 2.79295 2.69024C2.51474 2.96846 2.30241 3.2906 2.15599 3.65667C2.07545 3.869 2.0059 4.13257 1.94732 4.44739C1.89607 4.75489 1.85947 5.13194 1.8375 5.57855C1.82286 6.01783 1.81188 6.36926 1.80456 6.63283C1.80456 6.89641 1.80456 7.28444 1.80456 7.79694C1.81188 8.30212 1.81554 8.58033 1.81554 8.63158C1.81554 8.68283 1.81188 8.96471 1.80456 9.47721C1.80456 9.98239 1.80456 10.3668 1.80456 10.6303C1.81188 10.8939 1.82286 11.249 1.8375 11.6956C1.85947 12.1349 1.89607 12.5119 1.94732 12.8268C2.0059 13.1343 2.07545 13.3942 2.15599 13.6065C2.30241 13.9726 2.51474 14.2947 2.79295 14.5729C3.07116 14.8511 3.39331 15.0635 3.75938 15.2099C3.9717 15.2904 4.23161 15.36 4.53911 15.4185C4.85393 15.4698 5.23099 15.5064 5.67027 15.5284C6.11688 15.543 6.47197 15.554 6.73554 15.5613C6.99911 15.5613 7.38349 15.5613 7.88866 15.5613C8.40116 15.554 8.68304 15.5503 8.73429 15.5503C8.78554 15.5503 9.06375 15.554 9.56893 15.5613C10.0814 15.5613 10.4695 15.5613 10.733 15.5613C10.9966 15.554 11.348 15.543 11.7873 15.5284C12.2339 15.5064 12.611 15.4698 12.9185 15.4185C13.2333 15.36 13.4969 15.2904 13.7092 15.2099C14.0753 15.0635 14.3974 14.8511 14.6756 14.5729C14.9538 14.2947 15.1662 13.9726 15.3126 13.6065C15.3931 13.3942 15.459 13.1343 15.5103 12.8268C15.5688 12.5119 15.6055 12.1349 15.6201 11.6956C15.6421 11.249 15.653 10.8939 15.653 10.6303C15.6604 10.3668 15.6604 9.98239 15.653 9.47721C15.653 8.96471 15.653 8.68283 15.653 8.63158C15.653 8.58033 15.653 8.30212 15.653 7.79694C15.6604 7.28444 15.6604 6.89641 15.653 6.63283C15.653 6.36926 15.6421 6.01783 15.6201 5.57855C15.6055 5.13194 15.5688 4.75489 15.5103 4.44739C15.459 4.13257 15.3931 3.869 15.3126 3.65667C15.1662 3.2906 14.9538 2.96846 14.6756 2.69024C14.3974 2.41203 14.0753 2.19971 13.7092 2.05328C13.4969 1.97274 13.2333 1.90685 12.9185 1.8556C12.611 1.79703 12.2339 1.76042 11.7873 1.74578C11.348 1.72382 10.9966 1.71283 10.733 1.71283C10.4695 1.70551 10.0814 1.70551 9.56893 1.71283ZM17.1137 5.15024C17.1503 5.79453 17.1686 6.95498 17.1686 8.63158C17.1686 10.3082 17.1503 11.4686 17.1137 12.1129C17.0405 13.6358 16.5865 14.8145 15.7519 15.6492C14.9172 16.4838 13.7385 16.9377 12.2156 17.011C11.5713 17.0476 10.4109 17.0659 8.73429 17.0659C7.05768 17.0659 5.89724 17.0476 5.25295 17.011C3.73009 16.9377 2.55134 16.4838 1.7167 15.6492C0.882057 14.8145 0.428128 13.6358 0.354914 12.1129C0.318307 11.4686 0.300003 10.3082 0.300003 8.63158C0.300003 6.95498 0.318307 5.79453 0.354914 5.15024C0.428128 3.62739 0.882057 2.44864 1.7167 1.61399C2.55134 0.779351 3.73009 0.325423 5.25295 0.252209C5.89724 0.215602 7.05768 0.197298 8.73429 0.197298C10.4109 0.197298 11.5713 0.215602 12.2156 0.252209C13.7385 0.325423 14.9172 0.779351 15.7519 1.61399C16.5865 2.44864 17.0405 3.62739 17.1137 5.15024Z" fill="white"/>
</svg>
