<svg width="13" height="21" viewBox="0 0 13 21" fill="none" xmlns="http://www.w3.org/2000/svg">
<path d="M9.87381 9.29176C8.90006 10.2655 7.72497 10.7524 6.34854 10.7524C4.97212 10.7524 3.79703 10.2655 2.82328 9.29176C1.84953 8.31801 1.36265 7.14658 1.36265 5.77748C1.36265 4.40105 1.84953 3.22596 2.82328 2.25221C3.79703 1.27846 4.97212 0.791583 6.34854 0.791583C7.72497 0.791583 8.90006 1.27846 9.87381 2.25221C10.8476 3.22596 11.3344 4.40105 11.3344 5.77748C11.3344 7.14658 10.8476 8.31801 9.87381 9.29176ZM8.07274 4.0423C7.59685 3.55908 7.02212 3.31748 6.34854 3.31748C5.67497 3.31748 5.09658 3.55908 4.61337 4.0423C4.13747 4.51819 3.89953 5.09658 3.89953 5.77748C3.89953 6.45105 4.13747 7.02944 4.61337 7.51266C5.09658 7.98855 5.67497 8.22649 6.34854 8.22649C7.02212 8.22649 7.59685 7.98855 8.07274 7.51266C8.55595 7.02944 8.79756 6.45105 8.79756 5.77748C8.79756 5.09658 8.55595 4.51819 8.07274 4.0423ZM12.0922 11.3564C12.1874 11.5541 12.2423 11.7371 12.2569 11.9055C12.2716 12.0666 12.2533 12.213 12.202 12.3448C12.1581 12.4766 12.0629 12.6194 11.9165 12.7731C11.7701 12.9195 11.6127 13.055 11.4443 13.1794C11.2832 13.2966 11.0599 13.4467 10.7743 13.6297C9.93238 14.1642 8.77926 14.5083 7.31497 14.662L8.11667 15.4527L11.0489 18.385C11.2685 18.6119 11.3784 18.8828 11.3784 19.1977C11.3784 19.5125 11.2685 19.7797 11.0489 19.9994L10.9171 20.1421C10.6902 20.3618 10.4193 20.4716 10.1044 20.4716C9.78962 20.4716 9.51872 20.3618 9.29176 20.1421C8.80122 19.6443 7.82381 18.6632 6.35953 17.1989L3.42729 20.1421C3.20033 20.3618 2.92944 20.4716 2.61461 20.4716C2.29979 20.4716 2.03256 20.3618 1.81292 20.1421L1.68113 19.9994C1.45417 19.7797 1.34069 19.5125 1.34069 19.1977C1.34069 18.8828 1.45417 18.6119 1.68113 18.385L4.61337 15.4527L5.40408 14.662C3.91783 14.5083 2.75738 14.1642 1.92274 13.6297C1.6372 13.4467 1.41024 13.2966 1.24185 13.1794C1.08078 13.055 0.927026 12.9195 0.780597 12.7731C0.634169 12.6194 0.535329 12.4766 0.484079 12.3448C0.440151 12.213 0.425508 12.0666 0.440151 11.9055C0.454794 11.7371 0.509704 11.5541 0.604883 11.3564C0.678097 11.21 0.780597 11.0819 0.912383 10.972C1.04417 10.8622 1.19792 10.7817 1.37363 10.7304C1.54935 10.6792 1.75435 10.6865 1.98863 10.7524C2.22292 10.8183 2.46087 10.9464 2.70247 11.1368C2.73908 11.166 2.79399 11.2063 2.8672 11.2576C2.94042 11.3088 3.09783 11.4003 3.33944 11.5321C3.58104 11.6566 3.83363 11.7664 4.0972 11.8616C4.36078 11.9568 4.69756 12.0446 5.10756 12.1252C5.51756 12.2057 5.93122 12.246 6.34854 12.246C7.01479 12.246 7.65176 12.1544 8.25944 11.9714C8.86712 11.781 9.3064 11.5944 9.57729 11.4113L9.99462 11.1368C10.2362 10.9464 10.4742 10.8183 10.7085 10.7524C10.9427 10.6865 11.1477 10.6792 11.3235 10.7304C11.4992 10.7817 11.6529 10.8622 11.7847 10.972C11.9165 11.0819 12.019 11.21 12.0922 11.3564Z" fill="white"/>
</svg>
