<svg width="22" height="13" viewBox="0 0 22 13" fill="none" xmlns="http://www.w3.org/2000/svg">
<path d="M21.8728 1.5023C22.0412 1.97087 21.4921 3.04712 20.2254 4.73105C20.0497 4.96533 19.8118 5.27649 19.5116 5.66453C19.2188 6.03792 19.0174 6.3015 18.9076 6.45525C18.7978 6.609 18.6843 6.79203 18.5671 7.00435C18.4573 7.20935 18.4134 7.3631 18.4354 7.4656C18.4646 7.56078 18.5122 7.68525 18.5781 7.839C18.6513 7.99275 18.7721 8.15016 18.9405 8.31123C19.1089 8.4723 19.3176 8.66632 19.5665 8.89328C19.5958 8.90792 19.6141 8.92257 19.6214 8.93721C20.6538 9.89632 21.3529 10.7053 21.719 11.3643C21.741 11.4009 21.7629 11.4485 21.7849 11.507C21.8142 11.5583 21.8398 11.6535 21.8618 11.7926C21.8911 11.9317 21.8911 12.0561 21.8618 12.166C21.8325 12.2758 21.741 12.3783 21.5872 12.4735C21.4335 12.5613 21.2175 12.6052 20.9393 12.6052L18.1279 12.6492C17.9521 12.6858 17.7471 12.6675 17.5129 12.5943C17.2786 12.521 17.0882 12.4405 16.9418 12.3527L16.7221 12.2209C16.5025 12.0671 16.2463 11.8328 15.9534 11.518C15.6605 11.2032 15.4079 10.9213 15.1956 10.6724C14.9906 10.4161 14.7673 10.2038 14.5257 10.0354C14.2914 9.85971 14.0864 9.80114 13.9107 9.85971C13.8888 9.86703 13.8595 9.88167 13.8229 9.90364C13.7863 9.91828 13.724 9.96953 13.6362 10.0574C13.5483 10.1452 13.4678 10.2551 13.3946 10.3869C13.3287 10.5113 13.2664 10.7017 13.2079 10.9579C13.1566 11.2069 13.1346 11.4887 13.142 11.8035C13.142 11.9134 13.1273 12.0159 13.098 12.111C13.0761 12.1989 13.0504 12.2648 13.0212 12.3087L12.9772 12.3636C12.8454 12.5027 12.6514 12.5833 12.3952 12.6052H11.1322C10.6124 12.6345 10.0779 12.576 9.52884 12.4295C8.97973 12.2758 8.49652 12.0818 8.0792 11.8475C7.6692 11.6059 7.29214 11.3643 6.94804 11.1227C6.61125 10.8737 6.355 10.6614 6.17929 10.4857L5.90473 10.2221C5.83152 10.1489 5.72902 10.0391 5.59723 9.89266C5.47277 9.74623 5.21286 9.4131 4.8175 8.89328C4.42214 8.37346 4.03411 7.82069 3.65339 7.23498C3.27268 6.64926 2.82241 5.87685 2.30259 4.91775C1.79009 3.95864 1.3142 2.96292 0.87491 1.9306C0.830982 1.81346 0.809018 1.71462 0.809018 1.63408C0.809018 1.55355 0.82 1.49498 0.841964 1.45837L0.885893 1.39248C0.995714 1.25337 1.20437 1.18382 1.51187 1.18382L4.52098 1.16185C4.60884 1.17649 4.69304 1.20212 4.77357 1.23873C4.85411 1.26801 4.91268 1.2973 4.94929 1.32658L5.0042 1.35953C5.12134 1.44007 5.2092 1.55721 5.26777 1.71096C5.4142 2.07703 5.58259 2.45774 5.77295 2.8531C5.9633 3.24114 6.11339 3.53766 6.22321 3.74266L6.39893 4.06114C6.61125 4.50042 6.81625 4.88114 7.01393 5.20328C7.21161 5.52542 7.38732 5.77801 7.54107 5.96105C7.70214 6.13676 7.85589 6.27587 8.00232 6.37837C8.14875 6.48087 8.27321 6.53212 8.37571 6.53212C8.47821 6.53212 8.57705 6.51382 8.67223 6.47721C8.68688 6.46989 8.70518 6.45158 8.72714 6.4223C8.74911 6.39301 8.79304 6.31248 8.85893 6.18069C8.92482 6.04891 8.97241 5.87685 9.0017 5.66453C9.0383 5.45221 9.07491 5.15569 9.11152 4.77498C9.14813 4.39426 9.14813 3.93667 9.11152 3.40221C9.09688 3.10935 9.06393 2.84212 9.01268 2.60051C8.96143 2.35891 8.91018 2.19051 8.85893 2.09533L8.79304 1.96355C8.61 1.71462 8.29884 1.55721 7.85955 1.49132C7.76437 1.47667 7.78268 1.38882 7.91446 1.22774C8.03161 1.08864 8.17071 0.978817 8.33179 0.898281C8.71982 0.707923 9.59473 0.620066 10.9565 0.634709C11.5569 0.642031 12.0511 0.68962 12.4391 0.777476C12.5855 0.814084 12.7063 0.865334 12.8015 0.931226C12.904 0.989798 12.9809 1.07766 13.0321 1.1948C13.0834 1.30462 13.12 1.42176 13.142 1.54623C13.1713 1.66337 13.1859 1.8281 13.1859 2.04042C13.1859 2.25275 13.1822 2.45408 13.1749 2.64444C13.1676 2.8348 13.1566 3.09471 13.142 3.42417C13.1346 3.74632 13.131 4.0465 13.131 4.32471C13.131 4.40525 13.1273 4.559 13.12 4.78596C13.1127 5.01292 13.109 5.18864 13.109 5.3131C13.1163 5.43757 13.131 5.58766 13.1529 5.76337C13.1749 5.93176 13.2152 6.07453 13.2737 6.19167C13.3396 6.3015 13.4238 6.38935 13.5263 6.45525C13.5849 6.46989 13.6471 6.48453 13.713 6.49917C13.7789 6.51382 13.8741 6.47355 13.9986 6.37837C14.123 6.28319 14.2621 6.15873 14.4159 6.00498C14.5696 5.84391 14.76 5.59864 14.987 5.26917C15.2139 4.93239 15.4629 4.53703 15.7338 4.0831C16.173 3.32167 16.5647 2.49801 16.9088 1.61212C16.9381 1.53891 16.9747 1.47667 17.0187 1.42542C17.0626 1.36685 17.1029 1.32658 17.1395 1.30462L17.1834 1.27167C17.198 1.26435 17.2163 1.25703 17.2383 1.24971C17.2603 1.23507 17.3079 1.22408 17.3811 1.21676C17.4543 1.20212 17.5275 1.19846 17.6007 1.20578L20.7636 1.18382C21.0491 1.14721 21.2834 1.15819 21.4664 1.21676C21.6495 1.26801 21.7629 1.32658 21.8069 1.39248L21.8728 1.5023Z" fill="white"/>
</svg>
