<svg width="80" height="80" viewBox="0 0 80 80" fill="none" xmlns="http://www.w3.org/2000/svg">
<g clip-path="url(#clip0)">
<path d="M25.3071 53.6233V31.9039H20.2861V26.338H32.2354V53.6233H25.3071Z" fill="white"/>
<path d="M58.2737 33.3829C58.2737 35.7572 56.9892 37.8589 54.8485 39.0268C57.8453 40.2721 59.7138 42.8801 59.7138 45.916C59.7138 50.8202 55.3543 53.9342 48.5429 53.9342C41.7313 53.9342 37.3721 50.8591 37.3721 46.033C37.3721 42.919 39.396 40.2721 42.5487 39.0268C40.2523 37.7422 38.7733 35.5628 38.7733 33.1885C38.7733 28.8288 42.5879 26.0656 48.504 26.0656C54.498 26.0656 58.2737 28.9069 58.2737 33.3829ZM43.911 45.3325C43.911 47.6291 45.5459 48.9135 48.5429 48.9135C51.5399 48.9135 53.2136 47.6683 53.2136 45.3325C53.2136 43.0752 51.5399 41.7903 48.5429 41.7903C45.5457 41.7903 43.911 43.075 43.911 45.3325ZM44.6118 33.7721C44.6118 35.7187 46.013 36.808 48.5429 36.808C51.0728 36.808 52.474 35.7185 52.474 33.7721C52.474 31.7487 51.0728 30.6197 48.5429 30.6197C46.0127 30.6197 44.6118 31.7487 44.6118 33.7721Z" fill="white"/>
<path d="M71.2435 29.4182C72.3954 32.8178 72.9797 36.3736 72.9797 40.0001C72.9797 58.1845 58.1855 72.9787 40.0009 72.9787C21.8163 72.9787 7.02177 58.1845 7.02177 40.0001C7.02177 21.8153 21.816 7.02153 40.0006 7.02153C43.6277 7.02153 47.1834 7.60535 50.5825 8.75769V1.41871C47.1491 0.477524 43.6031 0 40.0009 0C17.945 0 0.000976562 17.944 0.000976562 40.0001C0.000976562 62.0562 17.945 80.0002 40.0009 80.0002C62.0567 80.0002 80.0005 62.0562 80.0005 40.0001C80.0005 36.3981 79.5232 32.8519 78.582 29.4182H71.2435Z" fill="white"/>
<path d="M69.2465 10.7305V3.06073H63.7313V10.7305H56.1074V16.2453H63.7313V23.9149H69.2465V16.2453H76.9158V10.7305H69.2465Z" fill="white"/>
</g>
<defs>
<clipPath id="clip0">
<rect width="80" height="80" fill="white"/>
</clipPath>
</defs>
</svg>
