<svg width="223" height="853" viewBox="0 0 223 853" fill="none" xmlns="http://www.w3.org/2000/svg">
<g opacity="0.1">
<path d="M0.719172 741.888C0.719175 803.156 50.5632 853 111.831 853C173.098 853 222.942 803.156 222.942 741.888C222.942 680.621 173.098 630.777 111.831 630.777C50.5548 630.777 0.71917 680.621 0.719172 741.888ZM69.7735 751.856L37.7255 751.856C32.2032 751.856 27.7247 747.377 27.7247 741.855C27.7247 736.332 32.2032 731.854 37.7255 731.854L69.7735 731.854L101.83 731.854C107.352 731.854 111.831 736.332 111.831 741.855C111.831 747.377 107.352 751.856 101.83 751.856L69.7735 751.856ZM159.057 695.092C160.883 696.919 162.542 698.846 164.124 700.833C164.259 701.001 164.411 701.144 164.545 701.304C164.722 701.532 164.848 701.776 165.008 702.012C173.687 713.452 178.452 727.3 178.452 741.905C178.452 741.914 178.452 741.914 178.452 741.914C178.452 744.658 178.284 747.428 177.947 750.138C177.871 750.719 177.728 751.275 177.568 751.813C177.408 752.899 177.282 753.994 177.072 755.071C176.979 755.551 176.827 756.014 176.718 756.486C173.999 768.591 167.963 779.72 158.964 788.702C157.482 790.184 155.908 791.573 154.3 792.903C154.199 792.987 154.098 793.071 153.997 793.155C153.593 793.483 153.198 793.837 152.785 794.157C152.49 794.384 152.171 794.544 151.859 794.738C151.245 795.201 150.638 795.672 150.007 796.11C149.704 796.32 149.426 796.556 149.123 796.767C147.978 797.541 146.775 798.223 145.579 798.922C144.906 799.317 144.249 799.755 143.559 800.134C142.717 800.588 141.825 800.967 140.958 801.388C139.855 801.927 138.769 802.483 137.632 802.962C137.262 803.114 136.866 803.232 136.496 803.383C128.953 806.38 120.762 808.072 112.167 808.072C109.415 808.072 106.645 807.904 103.943 807.567C103.362 807.491 102.815 807.348 102.268 807.188C88.3524 805.101 75.4978 798.72 65.3708 788.584C63.4346 786.648 61.5994 784.569 59.9158 782.414C56.5233 778.07 57.3062 771.781 61.6584 768.38C66.0106 764.988 72.2905 765.771 75.683 770.123C76.8616 771.63 78.1411 773.086 79.5049 774.45C88.2345 783.188 99.8348 788.012 112.184 788.02C119.693 788.028 126.924 786.227 133.415 782.868C133.609 782.767 133.811 782.691 133.996 782.59C134.905 782.102 135.772 781.547 136.647 780.999C137.06 780.738 137.498 780.511 137.902 780.242C138.609 779.77 139.274 779.232 139.947 778.726C140.351 778.415 140.781 778.129 141.176 777.809C141.993 777.152 142.776 776.437 143.55 775.713C144.325 774.997 145.066 774.248 145.781 773.482C146.665 772.539 147.515 771.571 148.315 770.569C148.879 769.854 149.409 769.13 149.931 768.397C150.731 767.261 151.489 766.116 152.179 764.921C152.541 764.298 152.869 763.658 153.198 763.018C153.922 761.604 154.62 760.164 155.193 758.683C155.344 758.296 155.462 757.9 155.605 757.504C156.237 755.736 156.809 753.935 157.222 752.091C157.297 751.755 157.407 751.426 157.474 751.09C157.617 750.357 157.701 749.616 157.811 748.876C158.156 746.577 158.392 744.262 158.392 741.897C158.392 741.888 158.392 741.88 158.392 741.863C158.392 731.239 154.814 721.18 148.256 713.006C147.473 712.029 146.631 711.103 145.764 710.186C145.461 709.857 145.184 709.512 144.864 709.192C144.855 709.184 144.847 709.167 144.83 709.15C136.109 700.471 124.559 695.681 112.252 695.673C99.9105 695.664 88.2935 700.471 79.5554 709.192C75.6494 713.09 69.3189 713.09 65.4213 709.184C61.5237 705.269 61.5321 698.939 65.4297 695.041C77.8633 682.625 94.3714 675.772 111.932 675.696C112.024 675.696 112.117 675.671 112.21 675.671C129.913 675.688 146.547 682.582 159.057 695.092Z" fill="#E02030"/>
<path d="M69.5127 533.101C72.1981 527.157 76.02 522.586 80.9615 519.371C85.9029 516.163 91.762 514.555 98.5218 514.555C105.197 514.555 111.031 516.163 116.023 519.371C121.015 522.578 124.829 527.157 127.472 533.101C130.115 539.044 131.437 546.048 131.437 554.112L131.437 572.456L156.548 572.456L156.548 593.535L65.4804 593.535L65.4804 554.121C65.4804 546.048 66.8273 539.044 69.5127 533.101ZM110.173 540.845C107.437 537.554 103.556 535.904 98.5302 535.904C93.412 535.904 89.4891 537.554 86.7532 540.845C84.0173 544.145 82.6535 548.952 82.6535 555.282L82.6535 572.456L114.264 572.456L114.264 555.282C114.264 548.952 112.9 544.137 110.173 540.845Z" fill="#E02030"/>
<path d="M151.993 479.763C147.919 487.356 142.304 493.291 135.148 497.584C127.993 501.878 119.953 504.024 111.013 504.024C102.082 504.024 94.0338 501.878 86.8783 497.584C79.7229 493.291 74.1079 487.356 70.0335 479.763C65.9591 472.178 63.9219 463.659 63.9219 454.197C63.9219 444.743 65.9591 436.241 70.0335 428.698C74.1079 421.156 79.7228 415.212 86.8783 410.877C94.0338 406.542 102.082 404.37 111.013 404.37C119.945 404.37 127.993 406.542 135.148 410.877C142.304 415.221 147.919 421.156 151.993 428.698C156.067 436.241 158.105 444.743 158.105 454.197C158.105 463.659 156.067 472.178 151.993 479.763ZM136.445 439.634C133.97 435.298 130.527 431.897 126.099 429.422C121.679 426.956 116.645 425.71 111.005 425.71C105.365 425.71 100.339 426.947 95.911 429.422C91.4915 431.897 88.04 435.298 85.5651 439.634C83.0901 443.969 81.8526 448.826 81.8526 454.205C81.8526 459.585 83.0901 464.442 85.5651 468.777C88.04 473.113 91.4831 476.514 95.911 478.988C100.331 481.455 105.365 482.693 111.005 482.693C116.645 482.693 121.671 481.455 126.099 478.988C130.518 476.514 133.97 473.113 136.445 468.777C138.919 464.442 140.157 459.585 140.157 454.205C140.157 448.826 138.919 443.969 136.445 439.634Z" fill="#E02030"/>
<path d="M65.4804 253.861L156.548 283.653L156.548 306.29L94.8851 326.325L156.548 347.008L156.548 369.51L65.4804 399.428L65.4804 377.575L129.484 357.018L65.4804 335.551L65.4804 316.038L130.006 295.22L65.4804 274.014L65.4804 253.861Z" fill="#E02030"/>
<path d="M139.636 171.641L156.548 171.641L156.548 242.152L65.4804 242.152L65.4804 173.333L82.3925 173.333L82.3925 221.207L102.167 221.207L102.167 178.923L118.557 178.923L118.557 221.207L139.628 221.207L139.628 171.641L139.636 171.641Z" fill="#E02030"/>
<path d="M156.548 96.8373L131.184 114.398L131.184 115.441L131.184 133.785L156.548 133.785L156.548 154.864L65.4804 154.864L65.4804 115.45C65.4804 107.385 66.8273 100.381 69.5127 94.4381C72.1981 88.4948 76.02 83.9238 80.9614 80.708C85.9029 77.5007 91.762 75.8929 98.5218 75.8929C105.29 75.8929 111.124 77.5175 116.023 80.7754C120.923 84.0248 124.677 88.6463 127.278 94.6317L156.548 74.2092L156.548 96.8373ZM86.7531 102.174C84.0172 105.474 82.6535 110.281 82.6535 116.612L82.6535 133.785L114.398 133.785L114.398 116.612C114.398 110.281 113.009 105.466 110.231 102.174C107.453 98.8829 103.556 97.2329 98.5218 97.2329C93.4119 97.2329 89.4891 98.8829 86.7531 102.174Z" fill="#E02030"/>
<path d="M118.953 0.440581L118.953 23.0771L141.067 23.0771L141.067 39.8545L118.953 39.8545L118.953 62.3647L103.084 62.3647L103.084 39.8545L80.9699 39.8545L80.9699 23.0771L103.084 23.0771L103.084 0.440581L118.953 0.440581Z" fill="#E02030"/>
</g>
</svg>
