<svg width="1758" height="314" viewBox="0 0 1758 314" fill="none" xmlns="http://www.w3.org/2000/svg">
<g opacity="0.04">
<path d="M229.16 0C102.888 0 0.160004 102.728 0.160004 229C0.160004 355.272 102.888 458 229.16 458C355.432 458 458.16 355.272 458.16 229C458.16 102.711 355.432 0 229.16 0ZM208.618 142.32V76.2697C208.618 64.8883 217.848 55.6582 229.229 55.6582C240.611 55.6582 249.841 64.8883 249.841 76.2697V142.32V208.388C249.841 219.77 240.611 229 229.229 229C217.848 229 208.618 219.77 208.618 208.388V142.32ZM325.608 326.332C321.843 330.097 317.87 333.515 313.775 336.777C313.428 337.055 313.133 337.367 312.803 337.644C312.335 338.009 311.832 338.269 311.346 338.599C287.768 356.486 259.227 366.306 229.125 366.306C229.108 366.306 229.108 366.306 229.108 366.306C223.452 366.306 217.744 365.959 212.157 365.265C210.96 365.109 209.815 364.814 208.705 364.485C206.466 364.155 204.211 363.895 201.99 363.461C201.001 363.27 200.047 362.958 199.075 362.732C174.126 357.128 151.19 344.688 132.678 326.142C129.624 323.088 126.761 319.844 124.02 316.53C123.847 316.322 123.673 316.113 123.5 315.905C122.823 315.072 122.094 314.257 121.435 313.407C120.967 312.8 120.637 312.14 120.238 311.498C119.284 310.232 118.312 308.983 117.41 307.681C116.976 307.057 116.49 306.484 116.057 305.86C114.46 303.5 113.055 301.019 111.615 298.555C110.8 297.167 109.897 295.814 109.117 294.391C108.18 292.656 107.399 290.817 106.532 289.03C105.421 286.758 104.276 284.519 103.287 282.177C102.975 281.414 102.732 280.598 102.42 279.835C96.2432 264.29 92.7559 247.408 92.7559 229.694C92.7559 224.021 93.1029 218.313 93.7969 212.743C93.953 211.546 94.248 210.418 94.5776 209.291C98.8804 180.611 112.032 154.118 132.921 133.246C136.911 129.256 141.197 125.474 145.638 122.004C154.591 115.012 167.551 116.625 174.56 125.595C181.552 134.565 179.939 147.508 170.969 154.5C167.863 156.929 164.862 159.566 162.051 162.377C144.042 180.369 134.1 204.277 134.083 229.729C134.066 245.205 137.779 260.108 144.701 273.485C144.909 273.884 145.066 274.3 145.274 274.682C146.28 276.556 147.425 278.343 148.553 280.147C149.091 280.997 149.559 281.9 150.114 282.732C151.086 284.19 152.196 285.56 153.237 286.948C153.879 287.781 154.469 288.666 155.128 289.481C156.482 291.164 157.956 292.778 159.449 294.374C160.923 295.97 162.467 297.497 164.046 298.972C165.989 300.793 167.985 302.546 170.049 304.194C171.524 305.357 173.016 306.45 174.525 307.525C176.868 309.173 179.227 310.735 181.691 312.158C182.975 312.904 184.293 313.58 185.612 314.257C188.527 315.749 191.494 317.189 194.547 318.369C195.345 318.681 196.161 318.924 196.976 319.219C200.62 320.52 204.332 321.7 208.132 322.55C208.826 322.706 209.503 322.932 210.197 323.071C211.706 323.366 213.233 323.539 214.76 323.765C219.496 324.476 224.267 324.962 229.143 324.962C229.16 324.962 229.177 324.962 229.212 324.962C251.108 324.962 271.841 317.588 288.687 304.073C290.7 302.459 292.608 300.724 294.499 298.937C295.176 298.312 295.887 297.74 296.547 297.081C296.564 297.063 296.599 297.046 296.633 297.011C314.521 279.037 324.393 255.233 324.41 229.867C324.428 204.433 314.521 180.49 296.547 162.481C288.514 154.431 288.514 141.384 296.564 133.351C304.632 125.318 317.679 125.335 325.712 133.368C351.303 158.994 365.425 193.017 365.582 229.208C365.582 229.399 365.634 229.59 365.634 229.781C365.599 266.267 351.389 300.551 325.608 326.332Z" fill="black"/>
<path d="M659.47 141.783C671.719 147.318 681.14 155.194 687.768 165.379C694.378 175.563 697.692 187.639 697.692 201.571C697.692 215.329 694.378 227.352 687.768 237.641C681.157 247.929 671.719 255.789 659.47 261.236C647.221 266.684 632.786 269.408 616.165 269.408H578.36V321.163H534.916V133.473H616.148C632.786 133.473 647.221 136.249 659.47 141.783ZM643.508 225.583C650.292 219.944 653.692 211.946 653.692 201.588C653.692 191.039 650.292 182.954 643.508 177.315C636.707 171.677 626.8 168.866 613.753 168.866H578.36V234.015H613.753C626.8 234.015 636.724 231.204 643.508 225.583Z" fill="black"/>
<path d="M769.398 311.774C753.749 303.377 741.517 291.804 732.669 277.057C723.82 262.31 719.396 245.741 719.396 227.315C719.396 208.907 723.82 192.321 732.669 177.573C741.517 162.826 753.749 151.254 769.398 142.856C785.03 134.459 802.588 130.26 822.09 130.26C841.573 130.26 859.097 134.459 874.642 142.856C890.188 151.254 902.437 162.826 911.372 177.573C920.307 192.321 924.783 208.907 924.783 227.315C924.783 245.723 920.307 262.31 911.372 277.057C902.419 291.804 890.188 303.377 874.642 311.774C859.097 320.171 841.573 324.37 822.09 324.37C802.588 324.37 785.03 320.171 769.398 311.774ZM852.105 279.729C861.04 274.628 868.049 267.532 873.15 258.406C878.234 249.297 880.801 238.922 880.801 227.298C880.801 215.673 878.251 205.316 873.15 196.19C868.049 187.081 861.04 179.968 852.105 174.867C843.17 169.766 833.159 167.215 822.072 167.215C810.986 167.215 800.975 169.766 792.04 174.867C783.105 179.968 776.095 187.064 770.994 196.19C765.911 205.298 763.361 215.673 763.361 227.298C763.361 238.922 765.911 249.28 770.994 258.406C776.095 267.515 783.105 274.628 792.04 279.729C800.975 284.83 810.986 287.38 822.072 287.38C833.159 287.38 843.17 284.83 852.105 279.729Z" fill="black"/>
<path d="M1234.98 133.473L1173.58 321.163H1126.93L1085.63 194.075L1043 321.163H996.628L934.967 133.473H980.007L1022.38 265.383L1066.62 133.473H1106.83L1149.74 266.459L1193.44 133.473H1234.98Z" fill="black"/>
<path d="M1404.44 286.307V321.163H1259.11V133.473H1400.95V168.328H1302.28V209.083H1389.43V242.863H1302.28V286.29H1404.44V286.307Z" fill="black"/>
<path d="M1558.61 321.163L1522.41 268.888H1520.26H1482.46V321.163H1439.01V133.473H1520.25C1536.87 133.473 1551.3 136.249 1563.55 141.783C1575.8 147.318 1585.22 155.194 1591.85 165.379C1598.46 175.563 1601.77 187.639 1601.77 201.571C1601.77 215.52 1598.42 227.543 1591.71 237.641C1585.01 247.738 1575.49 255.476 1563.15 260.837L1605.24 321.163H1558.61ZM1547.61 177.315C1540.8 171.677 1530.9 168.866 1517.85 168.866H1482.46V234.292H1517.85C1530.9 234.292 1540.82 231.43 1547.61 225.704C1554.39 219.979 1557.79 211.946 1557.79 201.571C1557.79 191.039 1554.39 182.954 1547.61 177.315Z" fill="black"/>
<path d="M1757.28 243.679H1710.62V289.256H1676.05V243.679H1629.65V210.974H1676.05V165.396H1710.62V210.974H1757.28V243.679Z" fill="black"/>
</g>
</svg>
